<svg id="logo" xmlns="http://www.w3.org/2000/svg" viewBox="0 0 33.616 47.625">
<path fill="#5d861d" d="M21.523 18.838a.157.157 0 0 0-.158.156c0 1.22-.425 2.201-1.078 3.1-.653.898-1.533 1.709-2.422 2.562-1.778 1.708-3.6 3.61-3.6 6.774 0 2.29.921 3.756 2.087 4.629 1.165.872 2.562 1.162 3.546 1.162h3.485a.157.157 0 0 0 .156-.158.157.157 0 0 0-.156-.157h-3.485c-.922 0-2.264-.28-3.359-1.1-1.095-.82-1.959-2.169-1.959-4.376 0-3.044 1.73-4.846 3.502-6.547.886-.85 1.78-1.671 2.459-2.606.679-.934 1.139-1.989 1.139-3.283a.157.157 0 0 0-.157-.156z"/>
<path fill="#5d861d" d="M21.842 22.467a.157.157 0 0 0-.158.156c0 3.888-1.802 5.67-3.647 7.191-.922.761-1.858 1.45-2.57 2.295-.713.847-1.198 1.859-1.201 3.227a.157.157 0 0 0 .156.158.157.157 0 0 0 .158-.156c.003-1.296.448-2.22 1.127-3.027.68-.807 1.599-1.487 2.53-2.254 1.86-1.535 3.761-3.448 3.761-7.434a.157.157 0 0 0-.156-.156z"/>
<path fill="#5d861d" d="M22.207 27.385a.157.157 0 0 0-.156.158c0 2.726-.538 5.072-1.738 6.727-1.201 1.654-3.058 2.636-5.78 2.636H9.945a.157.157 0 0 0-.156.157.157.157 0 0 0 .156.158h4.588c2.798 0 4.776-1.033 6.033-2.766 1.257-1.732 1.8-4.145 1.8-6.912a.157.157 0 0 0-.159-.158zM11.46 6.299c-.25 0-.725.008-1.153.1-.215.045-.42.11-.584.22-.165.11-.293.285-.293.5a.66.66 0 0 0 .168.447c.099.11.223.176.34.22.233.085.457.083.457.083h.404a.157.157 0 0 0 .158-.156.157.157 0 0 0-.158-.158h-.404s-.18-.002-.35-.065a.542.542 0 0 1-.215-.133.325.325 0 0 1-.086-.238c0-.1.045-.167.154-.24.11-.074.28-.135.473-.176.385-.082.847-.092 1.09-.092.321 0 .453.293.453.293a.157.157 0 0 0 .209.075.157.157 0 0 0 .076-.208s-.225-.472-.738-.472zM13.117.012c-.136-.02-.265-.02-.38.045a.399.399 0 0 0-.188.347c0 .565.142.989.289 1.27.146.28.305.43.305.43l.007.007 1.05.744.001.002c.015.02.04.057.069.108.06.104.14.261.228.45.178.375.396.88.608 1.386.42 1.003.807 1.989.814 2.006.002.009.225 1.128.225 1.933 0 .579-.036 1.14-.036 1.14v.011c0 .353.095.662.229.892.134.23.294.406.521.406a.157.157 0 0 0 .159-.156.157.157 0 0 0-.159-.158.593.593 0 0 1-.25-.25 1.49 1.49 0 0 1-.187-.734c0-.008.035-.564.035-1.15 0-.867-.232-2.005-.232-2.005l-.002-.013-.004-.012s-.4-1.015-.825-2.031a37.077 37.077 0 0 0-.613-1.4 6.704 6.704 0 0 0-.24-.471 1.215 1.215 0 0 0-.096-.147.355.355 0 0 0-.054-.058c-.024-.02-.057-.047-.125-.047l.091.029-1.003-.717c-.004-.003-.113-.102-.237-.34a2.405 2.405 0 0 1-.256-1.125c0-.065.007-.06.028-.072a.34.34 0 0 1 .183-.012c.196.029.5.155.801.332.3.178.603.407.824.635.221.228.346.46.346.588v.77l2.018 3.242.105.318.023.463.309 1.63.326 1.329a.157.157 0 0 0 .19.115.157.157 0 0 0 .115-.19l-.324-1.32-.303-1.601-.025-.485-.131-.394-1.99-3.197v-.68c0-.285-.187-.55-.434-.805a4.349 4.349 0 0 0-.89-.687c-.324-.191-.643-.332-.915-.371Zm2.871 10.463a.157.157 0 0 0-.156.156c0 .26.11.521.262.838.15.316.347.69.543 1.152.39.926.781 2.21.781 4.094 0 1.101-.438 1.989-.893 2.924-.454.934-.923 1.916-.923 3.172a.157.157 0 0 0 .158.156.157.157 0 0 0 .156-.156c0-1.178.437-2.102.89-3.036.454-.933.924-1.876.924-3.06 0-1.927-.402-3.262-.804-4.215-.201-.476-.403-.859-.549-1.166-.147-.307-.232-.542-.232-.703a.157.157 0 0 0-.157-.156z"/>
<path fill="#5d861d" d="M21.74 15.734c-.11-.012-.205.023-.318.075-.226.103-.519.303-.871.59-.705.572-1.635 1.49-2.565 2.65-1.86 2.32-3.727 5.603-3.72 8.988a.157.157 0 0 0 .158.156.157.157 0 0 0 .156-.156c-.007-3.269 1.817-6.506 3.65-8.793.917-1.144 1.836-2.05 2.518-2.603.34-.277.627-.466.805-.547.05-.024.059-.021.086-.028-.01.784-.105 1.27-.2 1.506a.818.818 0 0 1-.126.227l-.022.025a.157.157 0 0 0-.066.211.157.157 0 0 0 .21.067s.064-.037.118-.1c.054-.063.117-.162.177-.313.121-.301.23-.812.23-1.697a.266.266 0 0 0-.056-.172.255.255 0 0 0-.164-.086zM16.3 9.736a.157.157 0 0 0-.187.12s-.366 1.618-1.476 3.238c-1.11 1.62-2.945 3.224-5.918 3.224-2.743 0-4.242-1.158-4.242-1.158a.157.157 0 0 0-.221.03.157.157 0 0 0 .03.22s1.6 1.223 4.433 1.223c3.087 0 5.028-1.688 6.176-3.362 1.147-1.673 1.523-3.347 1.523-3.347a.157.157 0 0 0-.117-.188zM16.586 11.967a.157.157 0 0 0-.156.158c0 3.321-1.332 5.176-2.662 6.223-1.33 1.046-2.653 1.27-2.653 1.27a.157.157 0 0 0-.129.18.157.157 0 0 0 .18.128s1.402-.237 2.795-1.332c1.393-1.096 2.783-3.063 2.783-6.469a.157.157 0 0 0-.158-.158z"/>
<path fill="#5d861d" d="M14.582 7.574a.157.157 0 0 0-.19.114s-.302 1.206-1.156 2.423c-.853 1.218-2.237 2.43-4.43 2.473-2.326.045-3.853-.479-4.8-1.008-.947-.53-1.303-1.05-1.303-1.05a.157.157 0 0 0-.217-.04.157.157 0 0 0-.04.22s.412.587 1.408 1.144c.995.556 2.582 1.094 4.958 1.048 2.307-.044 3.791-1.338 4.68-2.607a8.546 8.546 0 0 0 1.205-2.527.157.157 0 0 0-.115-.19ZM16.1 3.889a.157.157 0 0 0-.159.156.157.157 0 0 0 .159.156c.631 0 1.01.141 1.226.287a.784.784 0 0 1 .217.207c.04.06.047.112.047.1v.158h.156c.008 0 .078.017.166.065.088.047.198.12.318.21.24.183.524.435.791.706.268.27.52.56.702.808.182.25.279.48.279.53 0-.027.007-.025-.006-.008a.513.513 0 0 1-.074.07c-.07.057-.174.125-.28.186-.21.12-.423.216-.423.216l-.012.004-.01.006s-.047.036-.088.088a.977.977 0 0 0-.134.246c-.09.23-.172.61-.172 1.238 0 .701.598 1.295 1.154 1.852.278.279.552.548.75.8.198.253.312.484.312.678 0 .539-.156.934-.156.934l-.015.043.007.045s.165.802.149 1.691a.157.157 0 0 0 .152.159.157.157 0 0 0 .16-.153c.017-.915-.145-1.703-.15-1.73.018-.048.166-.424.166-.989 0-.309-.162-.593-.379-.87-.217-.278-.497-.552-.773-.829-.553-.554-1.063-1.12-1.063-1.63 0-.602.08-.944.15-1.126a.66.66 0 0 1 .088-.166c.019-.024.015-.016.014-.015V8.01c.02-.01.213-.095.43-.219.113-.065.228-.136.322-.213a.758.758 0 0 0 .125-.125.286.286 0 0 0 .068-.182c0-.23-.144-.447-.34-.714a7.762 7.762 0 0 0-.73-.842 8.115 8.115 0 0 0-.824-.736 2.87 2.87 0 0 0-.358-.237c-.07-.038-.136-.049-.203-.066-.016-.05-.02-.1-.056-.155a1.082 1.082 0 0 0-.301-.292c-.28-.189-.724-.34-1.402-.34Zm-1.11.082c-.472 0-.85.312-1.226.728-.376.417-.766.955-1.266 1.489-1 1.067-2.423 2.119-5.018 2.119a.157.157 0 0 0-.156.156.157.157 0 0 0 .156.158c2.681 0 4.214-1.117 5.247-2.219.516-.55.913-1.095 1.271-1.492.358-.396.661-.627.992-.627a.157.157 0 0 0 .156-.156.157.157 0 0 0-.156-.156z"/>
<path fill="#2b473f" d="M.041 42.257h1.59v-.277H.378v-.77h1.139v-.276H.378v-.69h1.224v-.277H.042Zm2.875 0h.324v-1.835l1.139 1.835h.39v-2.29h-.324v1.835l-1.138-1.835h-.391Zm3.183 0h1.59v-.277H6.436v-.77h1.139v-.276H6.436v-.69H7.66v-.277H6.1Zm2.795 0h.337v-.986h.032l.954.986h.484l-1.018-.986h.114c.49 0 .789-.26.789-.655 0-.391-.296-.649-.789-.649h-.903Zm.894-2.013c.308 0 .467.136.467.375 0 .235-.165.378-.467.378H9.23v-.753zm3.1 2.044c.398 0 .706-.127.942-.372v-.884h-.923v.28h.586v.487c-.134.133-.328.206-.582.206-.535 0-.843-.327-.843-.887 0-.547.308-.897.779-.897.343 0 .592.188.633.477h.337c-.057-.451-.455-.763-.98-.763-.658 0-1.113.49-1.113 1.19 0 .709.449 1.163 1.164 1.163zm2.223-.031h1.59v-.277h-1.253v-.77h1.139v-.276h-1.139v-.69h1.225v-.277H15.11zm3.476 0h.337v-2.013h.773v-.277h-1.883v.277h.773zm2.306 0h.337v-2.29h-.337zm2.496.028c.509 0 .801-.232.801-.639 0-.321-.178-.528-.566-.652l-.416-.133c-.242-.08-.338-.178-.338-.34 0-.198.166-.315.446-.315.299 0 .464.13.515.416h.327c-.044-.432-.346-.69-.83-.69-.473 0-.782.248-.782.63 0 .305.185.496.592.626l.397.127c.23.077.33.178.33.366 0 .213-.161.33-.47.33-.369 0-.588-.168-.63-.486h-.327c.057.487.398.76.95.76zm3.018.004c.53 0 .928-.338.998-.86h-.334c-.054.36-.308.573-.664.573-.452 0-.764-.356-.764-.893 0-.535.306-.888.764-.888.356 0 .607.21.661.573h.33c-.066-.515-.463-.859-.995-.859-.642 0-1.103.49-1.103 1.174 0 .687.464 1.18 1.107 1.18zm2.216-.032h.337v-1.053h1.18v1.053h.337v-2.29h-.337v.957h-1.18v-.957h-.337zm3.183 0h1.59v-.277h-1.253v-.77h1.139v-.276h-1.139v-.69h1.225v-.277h-1.562z"/>
<path fill="#2b473f" d="M0 47.625h.365v-1.51h1.78v1.51h.366V44.42h-.365v1.375H.366V44.42H0Zm4.23 0h2.147v-.32H4.596v-1.19h1.62v-.32h-1.62V44.74H6.34v-.32h-2.11Zm3.795 0h.365V44.42h-.365Zm2.085 0h2.012v-.32h-1.647V44.42h-.365zm3.305 0h.351l.365-.975h1.465l.365.975h.374l-1.237-3.205h-.446zm.841-1.296.61-1.62.606 1.62zm3.487 1.296h.365v-1.411l1.514 1.411h.552l-1.563-1.411h.317c.68 0 1.077-.36 1.077-.904 0-.539-.392-.89-1.077-.89h-1.185zm1.171-2.885c.481 0 .726.214.726.57 0 .36-.254.583-.726.583h-.806V44.74zm2.695 2.885h1.296c.587 0 .983-.343.983-.855 0-.4-.236-.725-.583-.837a.756.756 0 0 0 .494-.734c0-.481-.365-.78-.952-.78h-1.238zm1.206-2.903c.401 0 .62.183.62.517 0 .356-.237.56-.642.56h-.819v-1.077zm.027 1.371c.41 0 .672.25.672.637 0 .365-.249.592-.64.592h-.9v-1.229zm2.552 1.532h2.146v-.32h-1.78v-1.19h1.62v-.32h-1.62V44.74h1.745v-.32h-2.11zm3.795 0h.365V44.42h-.365zm2.962 0h.365V44.74h1.1v-.32H31.05v.32h1.1z"/>
</svg>
